<!DOCTYPE svg PUBLIC "-//W3C//DTD SVG 1.1//EN" "http://www.w3.org/Graphics/SVG/1.1/DTD/svg11.dtd">
<!-- Uploaded to: SVG Repo, www.svgrepo.com, Transformed by: SVG Repo Mixer Tools -->
<svg version="1.1" id="Capa_1" xmlns="http://www.w3.org/2000/svg" xmlns:xlink="http://www.w3.org/1999/xlink" viewBox="0 0 53 53" xml:space="preserve" width="800px" height="800px" fill="#ffffff">
<g id="SVGRepo_bgCarrier" stroke-width="0"/>
<g id="SVGRepo_tracerCarrier" stroke-linecap="round" stroke-linejoin="round"/>
<g id="SVGRepo_iconCarrier"> <path style="fill:#556080;" d="M44,44.5H0v0c0-9.941,8.059-18,18-18h8C35.941,26.5,44,34.559,44,44.5L44,44.5z"/> <rect x="49" y="0.5" style="fill:#38454F;" width="4" height="26"/> <g> <path style="fill:#839594;" d="M49,8.5c-2.761,0-5,2.239-5,5s2.239,5,5,5V8.5z"/> </g> <path style="fill:none;stroke:#949493;stroke-width:2;stroke-linecap:round;stroke-miterlimit:10;" d="M22,26.5 c0-7.186,5.814-13,13-13h9"/> <path style="fill:#7383BF;" d="M35,44.5H9v-5c0-7.18,5.82-13,13-13h0c7.18,0,13,5.82,13,13V44.5z"/> <path style="fill:#c0c0c0;" d="M30,44.5c0,4.418-3.582,8-8,8s-8-3.582-8-8H30z"/> </g>
</svg>